<?xml version="1.0" encoding="UTF-8"?>
<svg width="400pt" height="400pt" version="1.1" viewBox="0 0 700 700" xmlns="http://www.w3.org/2000/svg" xmlns:xlink="http://www.w3.org/1999/xlink">

 <g>
  <path d="m582.4 98.188c-0.62109-0.55859-1.4922-0.80859-2.3008-0.80859l-229.91 35.527-230.29-35.527c-0.87109 0-1.6797 0.25-2.3008 0.80859-0.5625 0.55859-0.93359 1.3672-0.93359 2.2383v239.25c0 1.1211 0.62109 2.1797 1.6172 2.7383l230.29 119.9c0.4375 0.25 0.93359 0.375 1.4297 0.375s0.99609-0.125 1.4297-0.375l230.29-119.9c0.99609-0.55859 1.6797-1.5547 1.6797-2.7383v-239.25c-0.0625-0.87109-0.43359-1.6797-0.99609-2.2383zm-458.64 6.5312 222.26 35.031v156.61l-55.254 9.582-0.1875-132.35c0-1.6797-1.2461-3.1719-2.9883-3.3594l-73.672-7.4062c-0.99609-0.125-1.9922 0.1875-2.7383 0.80859-0.74609 0.62109-1.1836 1.5547-1.1836 2.5508v153.75l-86.234 14.938zm160.1 202.35-67.016 11.637v-148.65l66.828 6.4727zm-126.81 47.477-24.891-12.941 217.84-37.832 15.43 2.6758-206.33 49.219zm4.8516 2.5508 208.69-49.715 25.262 4.418-206.33 59.734zm30.238 15.742 208.26-60.293 25.883 4.4805-205.52 70.746zm31.113 16.238 207.2-71.309 30.676 5.3516-208.13 81.453zm32.168 16.738 209.62-82.07 32.543 5.6641-213.11 91.527zm31.422 16.367 214.42-92.152 29.492 5.1016-213.55 102.85zm63.156 32.852-30.551-15.867 214.73-103.41 33.664 5.8477zm226.24-120.15-222.2-38.578v-156.61l222.2-35.031z"/>
  <path d="m543.7 177.09c-1.1836-1.0586-2.6133-1.6172-4.168-1.6172h-0.62109l-64.586 6.2227c-3.1719 0.3125-5.6016 2.9883-5.6016 6.2227v49.031c0 3.2344 2.4883 5.9727 5.7852 6.2227l64.586 4.668h0.4375c1.5547 0 3.1094-0.62109 4.2305-1.6797 1.2461-1.1836 1.9922-2.8008 1.9922-4.543l-0.003906-59.926c0-1.7422-0.74609-3.4219-2.0508-4.6016zm-4.1719 4.6016v30.117h-32.727v-27.004zm-34.469 3.3633v26.816h-30.117v-23.957zm-30.117 28.559h30.117v25.512l-30.117-2.1797zm31.859 25.637v-25.637h32.668v28z"/>
 </g>
</svg>
